<svg xmlns="http://www.w3.org/2000/svg" viewBox="0 0 150 135"><defs><style>.cls-1{fill:#fff;}</style></defs><title>acessibilidade-web</title><path class="cls-1" d="M117.18 90.69l-9.69 4.52L94.9 67.26H61.49l-.71-10h23.14v-7.61H60.23l-1-14a11.08 11.08 0 1 0-9.71-3l3.24 45.24H87l14.53 32.52 20.34-9.69zM67.61 64.69h26.48l12.94-14.71-2.72-2.44-10.73 11.99H67.61v5.16zM68.53 111A30.06 30.06 0 0 1 48.3 58.72L47.31 44a56.48 56.48 0 0 0-15.26 19.62c-.1.21-.19.41-.28.62l-.34.76a40.47 40.47 0 0 0-1.95 5.66v.12c-.17.65-.33 1.3-.47 2-.1.45-.19.91-.28 1.37a40.38 40.38 0 0 0 65.35 38.12l-4.43-9.91A29.8 29.8 0 0 1 68.53 111z"/></svg>