<?xml version="1.0" encoding="utf-8"?>
<!-- Generator: Adobe Illustrator 26.2.1, SVG Export Plug-In . SVG Version: 6.00 Build 0)  -->
<svg version="1.1" id="Camada_1" xmlns="http://www.w3.org/2000/svg" xmlns:xlink="http://www.w3.org/1999/xlink" x="0px" y="0px"
	 viewBox="0 0 150 135" style="enable-background:new 0 0 150 135;" xml:space="preserve">
<style type="text/css">
	.st0{fill:#FFFFFF;}
</style>
<g>
	<path class="st0" d="M4.9,15.8v103.4h140.2V15.8H4.9z M140.7,20.3V41H9.3V20.3H140.7z M9.3,114.7V45.4h131.3v69.3H9.3z"/>
	<circle class="st0" cx="19.1" cy="30.3" r="3.3"/>
	<path class="st0" d="M30.1,33.6c1.8,0,3.3-1.5,3.3-3.3c0-1.8-1.5-3.3-3.3-3.3c-1.8,0-3.3,1.5-3.3,3.3
		C26.8,32.1,28.2,33.6,30.1,33.6z"/>
	<circle class="st0" cx="41.1" cy="30.3" r="3.3"/>
	<path class="st0" d="M24.7,64.1h21c1.2,0,2.2-1,2.2-2.2c0-1.2-1-2.2-2.2-2.2h-21c-1.2,0-2.2,1-2.2,2.2
		C22.5,63.1,23.5,64.1,24.7,64.1z"/>
	<path class="st0" d="M24.7,82.9h42.6c1.2,0,2.2-1,2.2-2.2s-1-2.2-2.2-2.2H24.7c-1.2,0-2.2,1-2.2,2.2S23.5,82.9,24.7,82.9z"/>
	<path class="st0" d="M117.6,78.4H77.2c-1.2,0-2.2,1-2.2,2.2s1,2.2,2.2,2.2h40.4c1.2,0,2.2-1,2.2-2.2S118.9,78.4,117.6,78.4z"/>
	<path class="st0" d="M86.4,97.2H24.7c-1.2,0-2.2,1-2.2,2.2c0,1.2,1,2.2,2.2,2.2h61.7c1.2,0,2.2-1,2.2-2.2
		C88.6,98.2,87.6,97.2,86.4,97.2z"/>
	<path class="st0" d="M54.7,64.1h47.8c1.2,0,2.2-1,2.2-2.2c0-1.2-1-2.2-2.2-2.2H54.7c-1.2,0-2.2,1-2.2,2.2
		C52.5,63.1,53.5,64.1,54.7,64.1z"/>
</g>
</svg>
