<svg xmlns="http://www.w3.org/2000/svg" viewBox="0 0 150 135"><defs><style>.cls-1,.cls-2,.cls-3{fill:#fff;}.cls-2{opacity:0.6;}.cls-3{opacity:0.8;}</style></defs><title>logica-de-programacao</title><path class="cls-1" d="M62.91 23.59a4.14 4.14 0 0 1-4.14 4.14H34.92a4.14 4.14 0 0 1-4.14-4.14 4.14 4.14 0 0 1 4.14-4.14h23.84a4.14 4.14 0 0 1 4.14 4.14zM47.28 35.31v-6.12h-.88v6.12h-1.72l2.17 3.77 2.18-3.77h-1.75z"/><path class="cls-2" d="M62.73 46.45l-7.98-2.96-7.83-2.89v-.06l-.08.03-.08-.03v.06l-7.83 2.89-7.98 2.96 7.98 2.95 7.83 2.89v.06l.08-.03.08.03v-.06l7.83-2.89 7.98-2.95z"/><path class="cls-1" d="M47.28 60.03v-6.12h-.88v6.12h-1.72l2.17 3.76 2.18-3.76h-1.75z"/><path class="cls-2" d="M62.73 71.31l-7.98-2.95-7.83-2.89v-.06l-.08.03-.08-.03v.06l-7.83 2.89-7.98 2.95 7.98 2.95 7.83 2.89v.06l.08-.03.08.03v-.06l7.83-2.89 7.98-2.95z"/><path class="cls-1" d="M85.01 46.43l-3.77-2.17v1.75H64.43v.87h16.81v1.73l3.77-2.18zM85.01 71.3l-3.77-2.18v1.75H64.43v.88h16.81v1.72l3.77-2.17z"/><path class="cls-3" d="M62.91 94.69a4.14 4.14 0 0 1-4.14 4.14H34.92a4.14 4.14 0 0 1-4.14-4.14 4.14 4.14 0 0 1 4.14-4.14h23.84a4.14 4.14 0 0 1 4.14 4.14z"/><path class="cls-1" d="M47.28 84.31v-6.12h-.88v6.12h-1.72l2.17 3.76 2.18-3.76h-1.75z"/><path class="cls-3" d="M118.83 46.45a4.14 4.14 0 0 1-4.14 4.14H90.84a4.14 4.14 0 0 1-4.14-4.14 4.14 4.14 0 0 1 4.14-4.14h23.85a4.14 4.14 0 0 1 4.14 4.14zM118.83 71.31a4.14 4.14 0 0 1-4.14 4.14H90.84a4.14 4.14 0 0 1-4.14-4.14 4.14 4.14 0 0 1 4.14-4.14h23.85a4.14 4.14 0 0 1 4.14 4.14z"/><path class="cls-1" d="M15.09 105.18h1.77v6.35H20V113h-4.91v-7.84zM26.47 110.11a2.85 2.85 0 0 1-3 3 2.79 2.79 0 0 1-2.94-2.93 2.85 2.85 0 0 1 3-3 2.77 2.77 0 0 1 2.94 2.93zm-4.12.06c0 1 .41 1.71 1.16 1.71s1.13-.69 1.13-1.72c0-.84-.33-1.7-1.13-1.7s-1.15.87-1.15 1.71zm3-5.32l-1.42 1.77h-1.21l1-1.77h1.63zM33 112.19a3.23 3.23 0 0 1-.87 2.56 3.46 3.46 0 0 1-2.3.7 4.56 4.56 0 0 1-2-.43l.35-1.35a3.47 3.47 0 0 0 1.65.43 1.35 1.35 0 0 0 1.48-1.5v-.36a1.84 1.84 0 0 1-1.54.73 2.5 2.5 0 0 1-2.41-2.77 2.72 2.72 0 0 1 2.58-3 1.7 1.7 0 0 1 1.56.81l.06-.69H33v4.86zm-1.77-2.55a1.59 1.59 0 0 0 0-.33 1 1 0 0 0-1-.78c-.65 0-1.16.58-1.16 1.62a1.3 1.3 0 0 0 1.15 1.51 1 1 0 0 0 .94-.71 1.61 1.61 0 0 0 .06-.48v-.84zM36.23 105.75a.88.88 0 0 1-1 .88.89.89 0 1 1 1-.88zM34.4 113v-5.69h1.77V113H34.4zM41.85 112.87a4 4 0 0 1-1.58.27 2.76 2.76 0 0 1-3-2.91 3 3 0 0 1 3.26-3 4.11 4.11 0 0 1 1.35.22l-.28 1.32a2.41 2.41 0 0 0-1-.17 1.47 1.47 0 0 0-1.52 1.59 1.49 1.49 0 0 0 1.56 1.59 2.5 2.5 0 0 0 1-.19zM47.61 111.65a7.4 7.4 0 0 0 .09 1.35h-1.59l-.11-.55a2 2 0 0 1-1.63.7 1.74 1.74 0 0 1-1.84-1.74c0-1.48 1.33-2.18 3.34-2.18v-.07c0-.31-.16-.75-1-.75a3.2 3.2 0 0 0-1.57.43l-.33-1.14a4.68 4.68 0 0 1 2.21-.51 2.21 2.21 0 0 1 2.49 2.46v2zm-1.71-1.31c-.93 0-1.65.22-1.65.9a.64.64 0 0 0 .7.67 1 1 0 0 0 .92-.65 1.29 1.29 0 0 0 0-.3v-.62zM56.88 104.76v8.26h-1.53l-.07-.83a2 2 0 0 1-1.78 1c-1.35 0-2.43-1.15-2.43-2.92 0-1.92 1.18-3 2.55-3a1.75 1.75 0 0 1 1.5.64v-3.07h1.77zm-1.77 5a1.55 1.55 0 0 0 0-.33 1.06 1.06 0 0 0-1-.86 1.37 1.37 0 0 0-1.22 1.62 1.33 1.33 0 0 0 1.11 1.55 1.05 1.05 0 0 0 1-.85 2.35 2.35 0 0 0 0-.41v-.74zM59.65 110.74a1.39 1.39 0 0 0 1.61 1.08 4.69 4.69 0 0 0 1.57-.24l.23 1.2a5.36 5.36 0 0 1-2.06.36 2.73 2.73 0 0 1-3-2.89 2.85 2.85 0 0 1 2.87-3c1.84 0 2.54 1.43 2.54 2.84a4.27 4.27 0 0 1-.06.7h-3.7zm2.08-1.21a1 1 0 0 0-1-1.15 1.17 1.17 0 0 0-1.09 1.15h2.09zM66.84 105.28a14.62 14.62 0 0 1 2.4-.16 3.76 3.76 0 0 1 2.4.63 2.26 2.26 0 0 1 .84 1.81 2.45 2.45 0 0 1-.72 1.86 3.69 3.69 0 0 1-2.55.83 3 3 0 0 1-.6 0V113h-1.77v-7.74zm1.76 3.56a2.58 2.58 0 0 0 .59 0 1.3 1.3 0 0 0 1.52-1.27 1.17 1.17 0 0 0-1.4-1.15 3.13 3.13 0 0 0-.72.06v2.31zM73.43 109.2v-1.87h1.51l.07 1a1.63 1.63 0 0 1 1.91-1.15v1.66a2.69 2.69 0 0 0-.48 0 1.14 1.14 0 0 0-1.21.9 2.13 2.13 0 0 0 0 .4V113h-1.8v-3.8zM83.37 110.11a2.85 2.85 0 0 1-3 3 2.79 2.79 0 0 1-2.94-2.93 2.85 2.85 0 0 1 3-3 2.77 2.77 0 0 1 2.94 2.93zm-4.12.06c0 1 .41 1.71 1.16 1.71s1.13-.69 1.13-1.72c0-.84-.33-1.7-1.13-1.7s-1.15.87-1.15 1.71zM89.88 112.19a3.23 3.23 0 0 1-.87 2.56 3.46 3.46 0 0 1-2.3.7 4.57 4.57 0 0 1-2-.43l.29-1.35a3.46 3.46 0 0 0 1.65.43 1.35 1.35 0 0 0 1.48-1.5v-.36a1.84 1.84 0 0 1-1.54.73 2.5 2.5 0 0 1-2.41-2.77 2.72 2.72 0 0 1 2.58-3 1.7 1.7 0 0 1 1.56.81l.06-.69h1.54v4.86zm-1.77-2.55a1.59 1.59 0 0 0 0-.33 1 1 0 0 0-1-.78c-.65 0-1.16.58-1.16 1.62a1.3 1.3 0 0 0 1.15 1.51 1 1 0 0 0 .94-.71 1.61 1.61 0 0 0 .06-.48v-.84zM91.3 109.2v-1.87h1.51l.07 1a1.63 1.63 0 0 1 1.91-1.15v1.66a2.69 2.69 0 0 0-.48 0 1.14 1.14 0 0 0-1.21.9 2.08 2.08 0 0 0 0 .4V113h-1.8v-3.8zM100.32 111.65a7.4 7.4 0 0 0 .09 1.37h-1.59l-.11-.57a2.05 2.05 0 0 1-1.63.7 1.74 1.74 0 0 1-1.84-1.74c0-1.48 1.33-2.18 3.34-2.18v-.07c0-.31-.16-.75-1-.75a3.2 3.2 0 0 0-1.57.43l-.33-1.14a4.68 4.68 0 0 1 2.21-.51 2.21 2.21 0 0 1 2.49 2.46v2zm-1.71-1.31c-.93 0-1.65.22-1.65.9a.64.64 0 0 0 .7.67 1 1 0 0 0 .92-.65 1.29 1.29 0 0 0 0-.3v-.62zM101.73 109.15v-1.82h1.5l.07.77a2 2 0 0 1 1.72-.91 1.61 1.61 0 0 1 1.56 1 2.48 2.48 0 0 1 .75-.7 2.16 2.16 0 0 1 1.08-.28c1.09 0 1.92.77 1.92 2.48V113h-1.72v-3.09c0-.83-.27-1.3-.84-1.3a.88.88 0 0 0-.83.62 1.86 1.86 0 0 0-.06.45V113h-1.72v-3.2c0-.71-.26-1.2-.83-1.2a.9.9 0 0 0-.83.63 1.19 1.19 0 0 0-.07.45V113h-1.72v-3.87zM116.46 111.65a7.51 7.51 0 0 0 .09 1.37H115l-.1-.57a2 2 0 0 1-1.63.7 1.74 1.74 0 0 1-1.84-1.74c0-1.48 1.33-2.18 3.34-2.18v-.07c0-.31-.16-.75-1-.75a3.21 3.21 0 0 0-1.57.43l-.32-1.14a4.68 4.68 0 0 1 2.21-.51 2.21 2.21 0 0 1 2.49 2.46v2zm-1.71-1.31c-.93 0-1.65.22-1.65.9a.64.64 0 0 0 .7.67 1 1 0 0 0 .92-.65 1.29 1.29 0 0 0 0-.3v-.62zM122.13 112.88a3.52 3.52 0 0 1-1.3.26l-.22.41a1 1 0 0 1 .85.93 1.18 1.18 0 0 1-1.4 1.08 2.08 2.08 0 0 1-1-.22l.22-.72a1.55 1.55 0 0 0 .65.16c.23 0 .42-.07.42-.29s-.27-.36-.92-.43l.46-1a2.68 2.68 0 0 1-2.38-2.85 3 3 0 0 1 3.26-3 4.12 4.12 0 0 1 1.35.22l-.28 1.32a2.41 2.41 0 0 0-1-.17 1.47 1.47 0 0 0-1.52 1.59 1.49 1.49 0 0 0 1.55 1.61 2.51 2.51 0 0 0 1-.19zM127.89 111.65A7.42 7.42 0 0 0 128 113h-1.59l-.1-.57a2 2 0 0 1-1.63.7 1.74 1.74 0 0 1-1.84-1.74c0-1.48 1.33-2.18 3.34-2.18v-.07c0-.31-.16-.75-1-.75a3.21 3.21 0 0 0-1.57.43l-.32-1.14a4.67 4.67 0 0 1 2.21-.51 2.21 2.21 0 0 1 2.49 2.46v2zm-4.13-5.12c0-1 .36-1.52 1-1.52a1.65 1.65 0 0 1 .76.23 1.25 1.25 0 0 0 .49.22c.19 0 .27-.11.3-.51h.81c0 1.06-.34 1.49-1 1.49a1.77 1.77 0 0 1-.8-.24.9.9 0 0 0-.44-.19c-.16 0-.26.17-.28.52h-.84zm2.42 3.8c-.93 0-1.65.22-1.65.9a.64.64 0 0 0 .7.67 1 1 0 0 0 .92-.65 1.24 1.24 0 0 0 0-.3v-.62zM134.91 110.11a2.85 2.85 0 0 1-3 3 2.79 2.79 0 0 1-2.94-2.93 2.85 2.85 0 0 1 3-3 2.77 2.77 0 0 1 2.94 2.93zm-4.12.06c0 1 .41 1.71 1.16 1.71s1.13-.69 1.13-1.72c0-.84-.33-1.7-1.13-1.7s-1.16.87-1.16 1.71z"/></svg>