<svg xmlns="http://www.w3.org/2000/svg" width="54" height="53" fill="none"><g clip-path="url(#a)"><mask id="b" width="54" height="53" x="0" y="0" maskUnits="userSpaceOnUse" style="mask-type:luminance"><path fill="#fff" d="M53.088.29H.656v52.43h52.432z"/></mask><g fill="#00D44C" mask="url(#b)"><path d="M26.872 12.523a5.244 5.244 0 1 0 .001 10.487 5.244 5.244 0 0 0 0-10.487m0 8.739a3.496 3.496 0 0 1 0-6.991 3.496 3.496 0 0 1 0 6.99"/><path d="M36.24 25.325a11.3 11.3 0 0 0-.912-.817l.01-.025a21.39 21.39 0 0 0-7.96-24.03.873.873 0 0 0-1.015 0 21.392 21.392 0 0 0-7.96 24.03l.009.025c-4.806 3.858-5.574 10.88-1.717 15.686.256.317.529.622.817.91a.876.876 0 0 0 .893.211.876.876 0 0 0 .59-.705l.66-4.617a.876.876 0 0 1 .863-.75h2.662l-.664 3.321a.874.874 0 0 0 .857 1.049h6.99a.874.874 0 0 0 .857-1.049l-.664-3.32h2.662c.434 0 .803.32.864.75l.66 4.616a.873.873 0 0 0 1.484.494c4.36-4.353 4.366-11.418.011-15.779zM26.872 2.25a19.724 19.724 0 0 1 5.166 5.904H21.705a19.723 19.723 0 0 1 5.166-5.904zm-6.35 31.246a2.634 2.634 0 0 0-2.593 2.251l-.38 2.651a9.407 9.407 0 0 1-1.528-5.974 9.42 9.42 0 0 1 2.97-6.126l2.314 7.2h-.783zm3.921 4.37.524-2.623h3.81l.525 2.622zm-1.303-4.37-2.877-8.95-.192-.599a19.65 19.65 0 0 1 .756-14.045h12.091a19.65 19.65 0 0 1 .756 14.045l-.192.599-2.877 8.95zm13.054 4.902-.38-2.65a2.634 2.634 0 0 0-2.593-2.252h-.782l2.314-7.2a9.417 9.417 0 0 1 2.968 6.126 9.385 9.385 0 0 1-1.529 5.975z"/></g><path fill="#00D44C" d="M23.377 41.29v2.85a6.057 6.057 0 0 0-6.013 1.469 7.012 7.012 0 0 0-5.348-2.5 6.91 6.91 0 0 0-1.881.261 8.694 8.694 0 0 0-8.605-7.253H.656v1.748h.874a6.95 6.95 0 0 1 6.936 6.24 7 7 0 0 0-2.159 1.961 8.691 8.691 0 0 0-5.65-2.084v1.748a6.998 6.998 0 0 1 6.99 6.99h1.748a8.688 8.688 0 0 0-1.835-5.342 5.255 5.255 0 0 1 2.173-1.996c.008 0 .017 0 .027-.01a5.197 5.197 0 0 1 2.258-.515 5.253 5.253 0 0 1 4.26 2.213 6.529 6.529 0 0 0-.765 3.03h1.748c0-.892.252-1.768.728-2.524h-.006c.014-.016.03-.029.041-.046a4.357 4.357 0 0 1 5.354-1.537v2.29h1.748v-6.991h-1.748zM52.214 37.865h.874v-1.748h-.874a8.693 8.693 0 0 0-8.604 7.253 6.849 6.849 0 0 0-1.882-.262 7.01 7.01 0 0 0-5.348 2.5 6.058 6.058 0 0 0-6.012-1.47v-2.849H28.62v6.99h1.748v-2.286a4.357 4.357 0 0 1 5.354 1.535c.011.018.029.03.04.047h-.005c.476.756.728 1.631.728 2.525h1.748a6.528 6.528 0 0 0-.765-3.03 5.253 5.253 0 0 1 4.26-2.213c.782 0 1.553.176 2.257.517.01.005.02.006.028.009a5.264 5.264 0 0 1 2.178 1.995 8.683 8.683 0 0 0-1.84 5.343h1.748a6.998 6.998 0 0 1 6.99-6.991v-1.748a8.702 8.702 0 0 0-5.65 2.084 6.999 6.999 0 0 0-2.159-1.96 6.949 6.949 0 0 1 6.936-6.241zM24.25 25.63h-1.747v1.749h1.748zM27.746 25.63h-1.748v1.749h1.748zM31.24 25.63h-1.747v1.749h1.748z"/><path fill="#00D44C" d="M12.016 46.604H10.27v1.747h1.747zM2.404 32.622H.656v1.747h1.748zM51.34 40.486h-1.748v1.748h1.748zM44.35 36.991h-1.748v1.748h1.747zM34.737 50.973h-1.748v1.747h1.748zM53.088 30.874H51.34v1.748h1.748z"/></g><defs><clipPath id="a"><path fill="#fff" d="M.656.29h52.431v52.43H.657z"/></clipPath></defs></svg>