<svg xmlns="http://www.w3.org/2000/svg" width="46" height="48" fill="none"><g fill="#00D44C" clip-path="url(#a)"><path d="M8.037 13.21c-.548 0-.834-.424-.834-.844 0-.419.286-.843.834-.843h17.831c.547 0 .834.424.834.844 0 .419-.287.844-.834.844z"/><path d="M5.826 47.742a.84.84 0 0 1-.833-.844v-3.236H1.797a.84.84 0 0 1-.833-.844V9.341c0-.044.004-.092.013-.142l.004-.026a.893.893 0 0 1 .07-.204l.021-.038a.816.816 0 0 1 .135-.186L9.34.505A.901.901 0 0 1 9.77.274L9.783.27h.004c.05-.009.1-.014.146-.014h22.175a.84.84 0 0 1 .834.844v3.237h3.195c.223 0 .434.089.592.249.157.16.243.372.243.597v10.372c.172.09.343.184.512.283l1.18-1.195a.875.875 0 0 1 1.253.001l3.043 3.083c.167.17.259.394.259.634s-.092.464-.26.633L41.78 20.19c.502.882.887 1.823 1.146 2.8h1.67c.488 0 .885.401.885.896v4.36a.891.891 0 0 1-.886.895h-1.668c-.261.98-.646 1.921-1.145 2.798l1.18 1.195c.166.17.258.394.258.633 0 .24-.092.466-.259.636l-3.044 3.08a.872.872 0 0 1-1.251 0l-1.18-1.194c-.173.102-.346.197-.513.283v10.326a.846.846 0 0 1-.242.596.825.825 0 0 1-.592.25zm29.478-1.69v-8.777c-.187.062-.382.12-.583.175v1.69a.891.891 0 0 1-.886.896h-.892v2.78a.84.84 0 0 1-.834.845H6.661v2.39zm-4.03-4.08v-1.935H29.53a.89.89 0 0 1-.884-.895V37.45a11.4 11.4 0 0 1-2.764-1.16l-1.18 1.196a.892.892 0 0 1-1.244.008l-.296-.3H8.036c-.547 0-.833-.425-.833-.845s.286-.844.833-.844H21.49l-1.087-1.1a.906.906 0 0 1 0-1.268l.73-.737H8.035c-.547 0-.833-.425-.833-.844 0-.42.286-.844.833-.844h12.94a11.946 11.946 0 0 1-.539-1.569H18.77a.892.892 0 0 1-.885-.896v-.641H8.036c-.547 0-.833-.425-.833-.844 0-.42.286-.844.833-.844h9.849v-2.03c0-.494.397-.897.885-.897h1.669c.017-.062.032-.123.05-.182H8.035c-.547 0-.833-.425-.833-.844 0-.42.286-.844.833-.844H21.11c.145-.32.304-.63.475-.928L20.404 19a.901.901 0 0 1-.189-.986H8.036c-.547 0-.833-.425-.833-.844 0-.42.286-.844.833-.844h13.756l1.655-1.676a.873.873 0 0 1 .626-.262c.236 0 .46.092.627.262l1.18 1.196a11.385 11.385 0 0 1 2.764-1.16v-1.691a.89.89 0 0 1 .884-.896h1.745V1.947H10.77v4.778h15.1c.547 0 .834.425.834.844 0 .42-.287.844-.834.844H10.767v.928a.846.846 0 0 1-.242.596.827.827 0 0 1-.592.249h-7.3v31.787zm1.675-3.729v-1.501a.895.895 0 0 1 .707-.879 9.531 9.531 0 0 0 1.739-.531 9.42 9.42 0 0 0 1.35-.686c.122-.071.249-.152.378-.24a.877.877 0 0 1 1.117.111l1.05 1.066 1.791-1.814-1.05-1.062a.91.91 0 0 1-.11-1.131 9.93 9.93 0 0 0 1.439-3.512.892.892 0 0 1 .867-.718h1.481v-2.564h-1.48a.89.89 0 0 1-.868-.718 9.94 9.94 0 0 0-1.44-3.511.91.91 0 0 1 .111-1.131l1.05-1.064-1.79-1.814-1.05 1.064a.873.873 0 0 1-.628.262.873.873 0 0 1-.49-.15 9.394 9.394 0 0 0-1.727-.925 9.492 9.492 0 0 0-1.739-.531.898.898 0 0 1-.707-.881v-1.5h-2.534v1.5a.896.896 0 0 1-.709.88 9.67 9.67 0 0 0-3.467 1.459.881.881 0 0 1-1.115-.113l-1.05-1.064-1.792 1.814 1.05 1.064c.298.3.345.775.113 1.13a10.037 10.037 0 0 0-1.067 2.153c-.156.442-.281.9-.374 1.36a.89.89 0 0 1-.867.718h-1.483v2.564h1.483c.418 0 .782.301.867.716a9.912 9.912 0 0 0 1.438 3.512.913.913 0 0 1-.111 1.132l-1.05 1.064 1.715 1.736h.154l.972-.986a.874.874 0 0 1 1.116-.115 9.672 9.672 0 0 0 3.467 1.459c.411.086.71.455.71.879v1.501h2.532zm1.772-23.565c.197.054.392.112.583.175V6.027h-2.361v6.064h.892c.489 0 .886.402.886.896zM9.1 8.497V3.14l-5.29 5.356z"/><path d="M31.682 31.32c-.09 0-.177-.002-.266-.006-2.762-.143-4.924-2.449-4.924-5.25 0-2.8 2.162-5.105 4.924-5.248a5.095 5.095 0 0 1 1.412.124 5.167 5.167 0 0 1 2.735 1.644 5.287 5.287 0 0 1 0 6.968 5.137 5.137 0 0 1-3.88 1.768zm0-8.718c-.094 0-.175.003-.247.01-1.78.13-3.171 1.647-3.171 3.452 0 1.806 1.392 3.322 3.169 3.452a3.283 3.283 0 0 0 1.314-.164 3.457 3.457 0 0 0 2.354-3.288 3.45 3.45 0 0 0-2.353-3.287 3.345 3.345 0 0 0-1.066-.174z"/></g><defs><clipPath id="a"><path fill="#fff" d="M.964.257H45.48v47.485H.964z"/></clipPath></defs></svg>