<svg xmlns="http://www.w3.org/2000/svg" width="39" height="51" fill="none"><g clip-path="url(#a)"><path fill="#00D44C" d="M19.507 50.73a18.99 18.99 0 0 1-7.51-1.532 19.2 19.2 0 0 1-6.131-4.18 19.459 19.459 0 0 1-4.134-6.2 19.573 19.573 0 0 1-1.516-7.592 19.569 19.569 0 0 1 5.65-13.793 19.222 19.222 0 0 1 6.131-4.18 18.982 18.982 0 0 1 6.526-1.508l.25-.012V8.352L16.21 6.528V.28l3.296 1.862 3.35-1.865v6.248L20.24 8.35v19.568l.19.055c1.426.414 2.422 1.751 2.422 3.253 0 1.866-1.501 3.383-3.346 3.383-1.845 0-3.348-1.518-3.348-3.383 0-1.502.997-2.84 2.423-3.253l.19-.055v-6.525l-.29.03c-4.973.528-8.724 4.742-8.724 9.803 0 5.435 4.373 9.857 9.748 9.857 5.375 0 9.748-4.422 9.748-9.857 0-4.244-2.765-8.072-6.747-9.378v-2.104a11.662 11.662 0 0 1 5.3 3.088 11.859 11.859 0 0 1 3.44 8.394c0 3.172-1.221 6.152-3.439 8.394a11.598 11.598 0 0 1-8.301 3.477 11.595 11.595 0 0 1-8.302-3.477 11.86 11.86 0 0 1-3.439-8.394c0-3.17 1.221-6.152 3.438-8.394a11.671 11.671 0 0 1 7.327-3.436l.241-.02V13.75l-.277.016c-9.133.535-16.287 8.205-16.287 17.46s7.76 17.49 17.298 17.49c9.539 0 17.298-7.845 17.298-17.49 0-8.548-5.999-15.757-14.297-17.227v-2.044c1.544.243 3.06.68 4.508 1.299a19.22 19.22 0 0 1 6.132 4.18 19.568 19.568 0 0 1 5.65 13.792 19.565 19.565 0 0 1-5.65 13.791 19.203 19.203 0 0 1-6.132 4.18 18.99 18.99 0 0 1-7.51 1.534z"/></g><defs><clipPath id="a"><path fill="#fff" d="M.216.278h38.582V50.73H.216z"/></clipPath></defs></svg>