<svg xmlns="http://www.w3.org/2000/svg" viewBox="0 0 150 135"><defs><style>.cls-1{fill:#fff;}</style></defs><title>seo-01</title><path class="cls-1" d="M58.67 119.1h32.74v-11.82H70.62v-6.24h18.2V89.21h-18.2v-4.64h20.79V72.75H58.67v46.35zM130.92 80.52q-5.51-8.3-15.87-8.3t-15.87 8.3q-3.79 5.71-3.79 15.41t3.79 15.41q5.51 8.3 15.87 8.3t15.87-8.3q3.79-5.71 3.79-15.41t-3.79-15.41zm-15.87 27.23q-7.64 0-7.64-11.82t7.64-11.82A6.63 6.63 0 0 1 120.9 87q1.79 2.72 1.79 8.9 0 11.85-7.64 11.84zM74.12 70.84l40-36.89 6.38 6.92 8.5-27.22-27.78 6.25 6.49 7L76 56.18 51.31 18.29 28.47 72.93a17.06 17.06 0 0 0-6.79 3 12.08 12.08 0 0 0-5.18 10.3 11.43 11.43 0 0 0 6.11 10.56q2.79 1.59 11.36 3.78 6 1.53 6 3.72a3.6 3.6 0 0 1-2 3.19 7.09 7.09 0 0 1-3.79 1.06q-6.57 0-8.1-5.38l-11 2.59q3.85 14 19.06 14a19.17 19.17 0 0 0 12.29-4.05A13.91 13.91 0 0 0 52 104.29a11.57 11.57 0 0 0-6.08-10.49q-3.12-1.93-11.36-4.12-6-1.6-6-3.45A2.44 2.44 0 0 1 30.18 84a5.84 5.84 0 0 1 2.82-.7 8 8 0 0 1 7.74 4.7l10-4.58q-4-8.26-12.05-10.29L53.15 38.6z"/></svg>