<svg xmlns="http://www.w3.org/2000/svg" width="49" height="49" fill="none"><g fill="#00D44C" clip-path="url(#a)"><path d="M10.887 47.247 9.462 45.24a.948.948 0 0 0-1.545 1.096l1.425 2.007a.944.944 0 0 0 1.32.223.946.946 0 0 0 .224-1.32zM21.812 47.6l-1.551-7.393a13.945 13.945 0 0 0-5.897-8.753l-3.311-2.227a3.332 3.332 0 0 0-4.223.43V18.25a3.15 3.15 0 0 0-2.483-3.094 3.154 3.154 0 0 0-2.67.622A3.154 3.154 0 0 0 .493 18.25v14.68c0 1.922.588 3.77 1.702 5.337l1.689 2.378a.945.945 0 0 0 1.319.225.947.947 0 0 0 .223-1.32L3.738 37.17a7.284 7.284 0 0 1-1.352-4.24v-14.68c0-.389.174-.751.477-.995a1.27 1.27 0 0 1 1.075-.25c.589.132 1 .643 1 1.246V29.9c0 1.648.606 3.219 1.707 4.44.048.058.096.113.148.167l2.064 2.192.974 1.038.009.008 1.462 1.556a.947.947 0 0 0 1.38-1.296c-.017-.018-1.125-1.199-2.391-2.543l-2.17-2.31s-.01-.013-.017-.018a1.598 1.598 0 0 1 .032-2.094A1.431 1.431 0 0 1 10 30.8l3.311 2.227a12.052 12.052 0 0 1 5.1 7.57l1.552 7.394a.947.947 0 0 0 1.853-.389z"/><path d="m7.504 42.48-.006-.01a.948.948 0 0 0-1.541 1.1l.006.009a.945.945 0 0 0 1.32.22.946.946 0 0 0 .221-1.32M47.777 15.778a3.154 3.154 0 0 0-2.67-.622 3.15 3.15 0 0 0-2.483 3.094v11.409a3.33 3.33 0 0 0-4.223-.432l-3.31 2.227a13.939 13.939 0 0 0-5.897 8.753l-1.552 7.394a.947.947 0 1 0 1.855.389l1.551-7.394a12.061 12.061 0 0 1 5.1-7.57l3.313-2.227a1.431 1.431 0 0 1 1.863.237c.532.602.54 1.483.033 2.092-.007.006-.012.014-.018.02l-4.562 4.854a.946.946 0 1 0 1.38 1.295c.012-.014 3.881-4.127 4.51-4.793.05-.054.1-.11.146-.167a6.615 6.615 0 0 0 1.706-4.442V18.25a1.27 1.27 0 0 1 1-1.246 1.274 1.274 0 0 1 1.552 1.244v14.68a7.288 7.288 0 0 1-1.352 4.242l-7.152 10.076a.948.948 0 0 0 1.544 1.096l7.153-10.077a9.174 9.174 0 0 0 1.702-5.337v-14.68c0-.965-.432-1.867-1.187-2.471z"/><path d="m36.718 18.414-1.684-.403v-.303a4.23 4.23 0 0 0 1.813-3.471v-2.19a4.243 4.243 0 0 0-4.238-4.237 4.218 4.218 0 0 0-2.75 1.017 5.538 5.538 0 0 0-5.12-3.447 5.542 5.542 0 0 0-5.125 3.454 4.221 4.221 0 0 0-2.758-1.025 4.243 4.243 0 0 0-4.238 4.237v2.19c0 1.436.718 2.706 1.813 3.472v.302l-1.684.402a4.437 4.437 0 0 0-3.416 4.328v1.768c0 .523.424.947.947.947h4.35c-.006.115-.011.23-.011.347v3.405c0 .522.424.947.946.947h5.691a.947.947 0 0 0 0-1.894h-.978v-1.957a.947.947 0 0 0-1.894 0v1.957H16.51v-2.458a3.918 3.918 0 0 1 3.016-3.823l2.598-.623 1.738 3.956a.946.946 0 0 0 1.733 0l1.737-3.95 2.59.62a3.92 3.92 0 0 1 3.019 3.824v2.455h-1.872v-1.956a.947.947 0 0 0-1.894 0v1.956h-1.073a.947.947 0 0 0 0 1.894h5.786a.947.947 0 0 0 .946-.947v-3.402c0-.117-.005-.233-.011-.35h4.363a.947.947 0 0 0 .947-.946V22.74a4.434 4.434 0 0 0-3.416-4.327zm-4.11-8.71c1.242 0 2.26.968 2.34 2.188h-1.317a6.9 6.9 0 0 1-3.175-.774 2.347 2.347 0 0 1 2.153-1.415m-2.343 4.395c0-.047.003-.092.003-.139v-.843c1.063.44 2.206.669 3.363.669h1.322v.45a2.347 2.347 0 0 1-2.344 2.345 2.347 2.347 0 0 1-2.344-2.344zM21.1 10.91a3.641 3.641 0 0 1 3.637-3.637 3.643 3.643 0 0 1 3.592 3.06l-1.595-.938a.946.946 0 0 0-1.205.209 4.081 4.081 0 0 1-3.135 1.463h-1.294zm-4.245-1.207c.963 0 1.792.584 2.152 1.415a6.896 6.896 0 0 1-3.173.774h-1.317a2.346 2.346 0 0 1 2.34-2.189zm-2.344 4.083h1.321c1.16 0 2.303-.23 3.366-.67v1.12a2.347 2.347 0 0 1-2.344 2.345 2.347 2.347 0 0 1-2.344-2.344v-.451zm4.573 6.35a5.809 5.809 0 0 0-4.023 3.426h-3.837v-.822c0-1.188.806-2.21 1.961-2.486l2.411-.575a.947.947 0 0 0 .728-.92v-.319a4.103 4.103 0 0 0 1.059 0v.313a.948.948 0 0 0 .768.932l1.413.338-.479.115zm2.641-1.469a4.397 4.397 0 0 0-.759-.255l-1.691-.405v-.294a4.25 4.25 0 0 0 .82-.75 5.575 5.575 0 0 0 1.629 1.633v.073zm4.112 1.391-1.109 2.52-1.11-2.526v-.675a5.543 5.543 0 0 0 2.219.004zm-1.101-2.461A3.641 3.641 0 0 1 21.1 13.96v-1h1.294a5.964 5.964 0 0 0 4.023-1.554l1.953 1.148v1.545a3.64 3.64 0 0 1-3.633 3.498m2.994 1.073v-.064a5.588 5.588 0 0 0 1.642-1.637c.238.282.512.53.815.743v.294l-1.692.405c-.264.063-.519.15-.764.259zm10.508 4.892h-3.85a5.808 5.808 0 0 0-4.026-3.424l-.474-.114 1.42-.34a.948.948 0 0 0 .774-.933v-.313a4.288 4.288 0 0 0 1.059 0v.318c0 .438.3.819.727.92l2.41.576a2.547 2.547 0 0 1 1.962 2.485v.822z"/><path d="M25.395 28.537a.95.95 0 0 0-1.616.67.95.95 0 0 0 .947.947c.25 0 .492-.102.67-.278a.958.958 0 0 0 .277-.669.955.955 0 0 0-.278-.67M24.726.268a.947.947 0 0 0-.947.946v1.417a.947.947 0 0 0 1.894 0V1.214a.947.947 0 0 0-.947-.946M21.239 3.355l-.994-.992a.947.947 0 0 0-1.338 1.34l.994.991a.95.95 0 0 0 1.34 0c.369-.37.369-.97 0-1.339zM30.523 2.388a.947.947 0 0 0-1.34 0l-.984.987a.947.947 0 1 0 1.338 1.338l.986-.987c.37-.37.37-.97 0-1.338"/></g><defs><clipPath id="a"><path fill="#fff" d="M.49.268h48.473v48.474H.49z"/></clipPath></defs></svg>